<svg xmlns:xlink="http://www.w3.org/1999/xlink" xmlns="http://www.w3.org/2000/svg" width="53" height="47" viewBox="0 0 53 47" fill="none"><path d="M9.27853 47C11.3189 47 12.9883 46.4435 14.3036 45.3137C15.6021 44.2008 16.2597 42.8855 16.2597 41.4015C16.2597 40.7439 16.1417 40.1537 15.8887 39.6141C15.6358 39.0745 15.366 38.636 15.0625 38.3325C14.7589 38.0121 14.4217 37.7423 14.017 37.5062C13.6291 37.2533 13.3593 37.1015 13.2076 37.0341C13.0389 36.9666 12.9209 36.9161 12.8366 36.8823L13.0895 36.7474C13.2581 36.6462 13.4774 36.5113 13.7134 36.2921C13.9495 36.0898 14.1856 35.8368 14.4217 35.5502C14.6578 35.2635 14.877 34.8925 15.0456 34.4203C15.2142 33.9313 15.2985 33.4254 15.2985 32.9027C15.2985 31.5368 14.6915 30.3564 13.4942 29.3615C12.2801 28.3497 10.695 27.8439 8.73894 27.8439H0.12207V47H9.27853ZM5.31578 42.9023V39.0745H8.87382C9.48088 39.0745 9.96991 39.2431 10.3577 39.6141C10.7287 39.9851 10.9311 40.4404 10.9311 40.98C10.9311 41.5364 10.7287 41.9917 10.3577 42.3459C9.96991 42.7168 9.48088 42.9023 8.87382 42.9023H5.31578ZM8.18246 31.9584C8.72207 31.9584 9.16049 32.1101 9.48088 32.4137C9.80127 32.7003 9.96991 33.1051 9.96991 33.5941C9.96991 34.0831 9.80127 34.4878 9.48088 34.7913C9.16049 35.078 8.72207 35.2298 8.18246 35.2298H5.31578V31.9584H8.18246ZM24.7417 42.6157V39.3443H32.1276V35.2298H24.7417V32.2282H34.3197V27.8439H19.5479V47H34.5895V42.6157H24.7417ZM36.2252 27.8439V32.498H41.5538V47H46.7644V32.498H52.1099V27.8439H36.2252Z" fill="#FEFEFE"/><path fill-rule="evenodd" clip-rule="evenodd" d="M5.41694 0.526245H46.7981C49.2938 0.526245 51.3174 2.56663 51.3174 5.04545V18.9909C51.3174 21.4698 49.2938 23.4933 46.7981 23.4933H5.41694C2.93811 23.4933 0.897705 21.4698 0.897705 18.9909V5.04545C0.897705 2.56663 2.93811 0.526245 5.41694 0.526245Z" stroke="#FEFEFE" stroke-width="1.04549" stroke-miterlimit="22.9256"/><path d="M11.8924 18.3501C13.2414 18.3501 14.3375 17.9792 15.2143 17.2372C16.0743 16.4952 16.5128 15.6353 16.5128 14.6404C16.5128 14.2188 16.4285 13.8309 16.2598 13.46C16.0912 13.1058 15.9226 12.8192 15.7202 12.6168C15.5179 12.4145 15.2818 12.229 15.0289 12.0604C14.759 11.9086 14.5904 11.8074 14.4892 11.7568C14.3881 11.7062 14.3038 11.6725 14.2363 11.6556L14.4049 11.5713C14.523 11.5039 14.6579 11.4027 14.8265 11.2678C14.9782 11.1329 15.13 10.9643 15.2987 10.7788C15.4504 10.5933 15.5853 10.3403 15.7034 10.0199C15.8045 9.69955 15.872 9.37916 15.872 9.02504C15.872 8.11446 15.4673 7.33878 14.6747 6.66427C13.8822 6.00662 12.8367 5.66937 11.5214 5.66937H5.82178V18.3501H11.8924ZM9.26179 15.6521V13.1059H11.6057C12.0104 13.1059 12.3477 13.2239 12.6006 13.46C12.8536 13.7129 12.9716 14.0164 12.9716 14.3706C12.9716 14.7415 12.8536 15.0451 12.6006 15.2812C12.3477 15.5172 12.0104 15.6521 11.6057 15.6521H9.26179ZM11.1673 8.40113C11.5214 8.40113 11.8081 8.50233 12.0273 8.68782C12.2296 8.89017 12.3477 9.15998 12.3477 9.48037C12.3477 9.80076 12.2296 10.0706 12.0273 10.2729C11.8081 10.4584 11.5214 10.5596 11.1673 10.5596H9.26179V8.40113H11.1673ZM18.6881 5.66937V18.3501H23.5783C25.5006 18.3501 27.1026 17.7431 28.3673 16.529C29.6489 15.298 30.2728 13.7972 30.2728 12.0098C30.2728 10.2223 29.6489 8.72153 28.3841 7.50741C27.1026 6.27643 25.5006 5.66937 23.5783 5.66937H18.6881ZM23.5783 8.75523C24.5226 8.75523 25.3151 9.05878 25.9222 9.66584C26.5292 10.2729 26.8328 11.0655 26.8328 12.0098C26.8328 12.9541 26.5124 13.7298 25.8716 14.3537C25.2139 14.9607 24.4551 15.2812 23.5783 15.2812H22.1281V8.75523H23.5783ZM39.4124 15.2812L42.9536 10.8463V18.3501H46.4104V5.66937H43.3246L39.4124 10.6607L35.534 5.66937H32.4481V18.3501H35.8881V10.8463L39.4124 15.2812Z" fill="#FEFEFE"/></svg>